<svg width="11" height="9" viewBox="0 0 11 9" fill="none" xmlns="http://www.w3.org/2000/svg">
<path d="M0 4.5C0.47 1.94 2.7135 0 5.4095 0C8.1055 0 10.3485 1.94 10.819 4.5C10.349 7.06 8.1055 9 5.4095 9C2.7135 9 0.4705 7.06 0 4.5ZM5.4095 7C6.07254 7 6.70843 6.73661 7.17727 6.26777C7.64611 5.79893 7.9095 5.16304 7.9095 4.5C7.9095 3.83696 7.64611 3.20107 7.17727 2.73223C6.70843 2.26339 6.07254 2 5.4095 2C4.74646 2 4.11057 2.26339 3.64173 2.73223C3.17289 3.20107 2.9095 3.83696 2.9095 4.5C2.9095 5.16304 3.17289 5.79893 3.64173 6.26777C4.11057 6.73661 4.74646 7 5.4095 7ZM5.4095 6C5.01168 6 4.63014 5.84196 4.34884 5.56066C4.06754 5.27936 3.9095 4.89782 3.9095 4.5C3.9095 4.10218 4.06754 3.72064 4.34884 3.43934C4.63014 3.15804 5.01168 3 5.4095 3C5.80732 3 6.18886 3.15804 6.47016 3.43934C6.75146 3.72064 6.9095 4.10218 6.9095 4.5C6.9095 4.89782 6.75146 5.27936 6.47016 5.56066C6.18886 5.84196 5.80732 6 5.4095 6Z" fill="#C1C1C1"/>
</svg>
