<svg width="24" height="24" viewBox="0 0 24 24" fill="none" xmlns="http://www.w3.org/2000/svg">
<path d="M13.5762 17.271L8.4662 14.484C7.97569 14.9709 7.35201 15.3017 6.67379 15.4346C5.99557 15.5676 5.29316 15.4968 4.65513 15.2311C4.01709 14.9654 3.47199 14.5168 3.08855 13.9418C2.70511 13.3668 2.50049 12.6911 2.50049 12C2.50049 11.3089 2.70511 10.6332 3.08855 10.0582C3.47199 9.48317 4.01709 9.03455 4.65513 8.76889C5.29316 8.50322 5.99557 8.43241 6.67379 8.56536C7.35201 8.69832 7.97569 9.02909 8.4662 9.51599L13.5762 6.72899C13.4009 5.90672 13.5275 5.04885 13.9328 4.31224C14.3381 3.57563 14.9949 3.00952 15.7833 2.71742C16.5717 2.42532 17.4388 2.42676 18.2262 2.72147C19.0136 3.01619 19.6686 3.58448 20.0714 4.32243C20.4742 5.06037 20.598 5.91866 20.42 6.74034C20.242 7.56202 19.7742 8.29218 19.1021 8.79729C18.43 9.3024 17.5986 9.54871 16.7598 9.49119C15.9211 9.43366 15.131 9.07613 14.5342 8.48399L9.4242 11.271C9.52613 11.7516 9.52613 12.2483 9.4242 12.729L14.5342 15.516C15.131 14.9238 15.9211 14.5663 16.7598 14.5088C17.5986 14.4513 18.43 14.6976 19.1021 15.2027C19.7742 15.7078 20.242 16.438 20.42 17.2596C20.598 18.0813 20.4742 18.9396 20.0714 19.6776C19.6686 20.4155 19.0136 20.9838 18.2262 21.2785C17.4388 21.5732 16.5717 21.5747 15.7833 21.2826C14.9949 20.9905 14.3381 20.4243 13.9328 19.6877C13.5275 18.9511 13.4009 18.0933 13.5762 17.271Z" fill="#1E211F"/>
</svg>
