<svg width="20" height="20" viewBox="0 0 18 18" fill="none" xmlns="http://www.w3.org/2000/svg">
<path d="M9.00033 0.666626C11.2645 0.666626 11.547 0.674959 12.4353 0.716626C13.3228 0.758293 13.927 0.897459 14.4587 1.10413C15.0087 1.31579 15.472 1.60246 15.9353 2.06496C16.3591 2.48154 16.687 2.98545 16.8962 3.54163C17.102 4.07246 17.242 4.67746 17.2837 5.56496C17.3228 6.45329 17.3337 6.73579 17.3337 8.99996C17.3337 11.2641 17.3253 11.5466 17.2837 12.435C17.242 13.3225 17.102 13.9266 16.8962 14.4583C16.6876 15.0148 16.3596 15.5188 15.9353 15.935C15.5186 16.3586 15.0148 16.6864 14.4587 16.8958C13.9278 17.1016 13.3228 17.2416 12.4353 17.2833C11.547 17.3225 11.2645 17.3333 9.00033 17.3333C6.73616 17.3333 6.45366 17.325 5.56533 17.2833C4.67783 17.2416 4.07366 17.1016 3.54199 16.8958C2.9856 16.687 2.4816 16.3591 2.06533 15.935C1.6415 15.5184 1.3136 15.0145 1.10449 14.4583C0.897826 13.9275 0.758659 13.3225 0.716992 12.435C0.677825 11.5466 0.666992 11.2641 0.666992 8.99996C0.666992 6.73579 0.675325 6.45329 0.716992 5.56496C0.758659 4.67663 0.897826 4.07329 1.10449 3.54163C1.31302 2.98511 1.641 2.48106 2.06533 2.06496C2.48172 1.64099 2.98568 1.31307 3.54199 1.10413C4.07366 0.897459 4.67699 0.758293 5.56533 0.716626C6.45366 0.677459 6.73616 0.666626 9.00033 0.666626ZM9.00033 4.83329C7.89526 4.83329 6.83545 5.27228 6.05405 6.05368C5.27265 6.83508 4.83366 7.89489 4.83366 8.99996C4.83366 10.105 5.27265 11.1648 6.05405 11.9462C6.83545 12.7276 7.89526 13.1666 9.00033 13.1666C10.1054 13.1666 11.1652 12.7276 11.9466 11.9462C12.728 11.1648 13.167 10.105 13.167 8.99996C13.167 7.89489 12.728 6.83508 11.9466 6.05368C11.1652 5.27228 10.1054 4.83329 9.00033 4.83329ZM14.417 4.62496C14.417 4.34869 14.3072 4.08374 14.1119 3.88839C13.9165 3.69304 13.6516 3.58329 13.3753 3.58329C13.0991 3.58329 12.8341 3.69304 12.6388 3.88839C12.4434 4.08374 12.3337 4.34869 12.3337 4.62496C12.3337 4.90123 12.4434 5.16618 12.6388 5.36153C12.8341 5.55688 13.0991 5.66663 13.3753 5.66663C13.6516 5.66663 13.9165 5.55688 14.1119 5.36153C14.3072 5.16618 14.417 4.90123 14.417 4.62496ZM9.00033 6.49996C9.66337 6.49996 10.2993 6.76335 10.7681 7.23219C11.2369 7.70103 11.5003 8.33692 11.5003 8.99996C11.5003 9.663 11.2369 10.2989 10.7681 10.7677C10.2993 11.2366 9.66337 11.5 9.00033 11.5C8.33728 11.5 7.7014 11.2366 7.23256 10.7677C6.76372 10.2989 6.50033 9.663 6.50033 8.99996C6.50033 8.33692 6.76372 7.70103 7.23256 7.23219C7.7014 6.76335 8.33728 6.49996 9.00033 6.49996Z" fill="#1E211F"/>
</svg>
