<svg width="20" height="20" viewBox="0 0 20 20" fill="none" xmlns="http://www.w3.org/2000/svg">
<path d="M18.4673 4.71327C17.8311 4.99468 17.1564 5.1795 16.4656 5.26161C17.1937 4.82613 17.7387 4.14078 17.9989 3.33327C17.3156 3.73994 16.5664 4.02494 15.7856 4.17911C15.2611 3.61792 14.5659 3.24574 13.8081 3.12043C13.0502 2.99511 12.2722 3.12368 11.595 3.48615C10.9178 3.84862 10.3793 4.42468 10.0632 5.12477C9.74715 5.82486 9.67124 6.60976 9.84728 7.35744C8.46154 7.28798 7.10589 6.92787 5.86835 6.30049C4.63081 5.67311 3.53905 4.79248 2.66395 3.71577C2.35419 4.24781 2.19141 4.85263 2.19228 5.46827C2.19228 6.6766 2.80728 7.74411 3.74228 8.36911C3.18895 8.35169 2.64781 8.20226 2.16395 7.93327V7.9766C2.16411 8.78136 2.44259 9.56129 2.95215 10.1842C3.46172 10.807 4.17101 11.2345 4.95978 11.3941C4.44612 11.5333 3.90753 11.5538 3.38478 11.4541C3.60717 12.1468 4.04062 12.7526 4.62444 13.1867C5.20826 13.6208 5.91322 13.8614 6.64061 13.8749C5.91768 14.4427 5.08993 14.8624 4.20468 15.1101C3.31943 15.3577 2.39405 15.4285 1.48145 15.3183C3.07453 16.3428 4.92903 16.8867 6.82311 16.8849C13.2339 16.8849 16.7398 11.5741 16.7398 6.96827C16.7398 6.81827 16.7356 6.66661 16.7289 6.51827C17.4113 6.02508 18.0003 5.41412 18.4681 4.71411L18.4673 4.71327Z" fill="#1E211F"/>
</svg>
