<svg width="70" height="70" viewBox="0 0 70 70" fill="none" xmlns="http://www.w3.org/2000/svg">
<g filter="url(#filter0_b)">
<circle cx="35" cy="35" r="35" fill="#00A989" fill-opacity="0.05"/>
<circle cx="35" cy="35" r="34.75" stroke="white" stroke-width="0.5"/>
</g>
<path d="M30.1001 20.3H39.9001L43.1668 23.5667H49.7001C50.1333 23.5667 50.5487 23.7387 50.855 24.045C51.1613 24.3514 51.3334 24.7668 51.3334 25.2V48.0667C51.3334 48.4998 51.1613 48.9153 50.855 49.2216C50.5487 49.5279 50.1333 49.7 49.7001 49.7H20.3001C19.8669 49.7 19.4514 49.5279 19.1451 49.2216C18.8388 48.9153 18.6667 48.4998 18.6667 48.0667V25.2C18.6667 24.7668 18.8388 24.3514 19.1451 24.045C19.4514 23.7387 19.8669 23.5667 20.3001 23.5667H26.8334L30.1001 20.3ZM35.0001 46.4333C37.5992 46.4333 40.0919 45.4008 41.9297 43.563C43.7676 41.7251 44.8001 39.2324 44.8001 36.6333C44.8001 34.0342 43.7676 31.5415 41.9297 29.7037C40.0919 27.8658 37.5992 26.8333 35.0001 26.8333C32.401 26.8333 29.9083 27.8658 28.0704 29.7037C26.2326 31.5415 25.2001 34.0342 25.2001 36.6333C25.2001 39.2324 26.2326 41.7251 28.0704 43.563C29.9083 45.4008 32.401 46.4333 35.0001 46.4333ZM35.0001 43.1667C33.2673 43.1667 31.6056 42.4783 30.3803 41.2531C29.1551 40.0278 28.4667 38.3661 28.4667 36.6333C28.4667 34.9006 29.1551 33.2388 30.3803 32.0136C31.6056 30.7883 33.2673 30.1 35.0001 30.1C36.7328 30.1 38.3946 30.7883 39.6198 32.0136C40.8451 33.2388 41.5334 34.9006 41.5334 36.6333C41.5334 38.3661 40.8451 40.0278 39.6198 41.2531C38.3946 42.4783 36.7328 43.1667 35.0001 43.1667Z" fill="white"/>
<defs>
<filter id="filter0_b" x="-5" y="-5" width="80" height="80" filterUnits="userSpaceOnUse" color-interpolation-filters="sRGB">
<feFlood flood-opacity="0" result="BackgroundImageFix"/>
<feGaussianBlur in="BackgroundImage" stdDeviation="2.5"/>
<feComposite in2="SourceAlpha" operator="in" result="effect1_backgroundBlur"/>
<feBlend mode="normal" in="SourceGraphic" in2="effect1_backgroundBlur" result="shape"/>
</filter>
</defs>
</svg>
