<svg width="20" height="20" viewBox="0 0 20 20" fill="none" xmlns="http://www.w3.org/2000/svg">
<path d="M10.0003 1.66663C12.2645 1.66663 12.547 1.67496 13.4353 1.71663C14.3228 1.75829 14.927 1.89746 15.4587 2.10413C16.0087 2.31579 16.472 2.60246 16.9353 3.06496C17.3591 3.48154 17.687 3.98545 17.8962 4.54163C18.102 5.07246 18.242 5.67746 18.2837 6.56496C18.3228 7.45329 18.3337 7.73579 18.3337 9.99996C18.3337 12.2641 18.3253 12.5466 18.2837 13.435C18.242 14.3225 18.102 14.9266 17.8962 15.4583C17.6876 16.0148 17.3596 16.5188 16.9353 16.935C16.5186 17.3586 16.0148 17.6864 15.4587 17.8958C14.9278 18.1016 14.3228 18.2416 13.4353 18.2833C12.547 18.3225 12.2645 18.3333 10.0003 18.3333C7.73616 18.3333 7.45366 18.325 6.56533 18.2833C5.67783 18.2416 5.07366 18.1016 4.54199 17.8958C3.9856 17.687 3.4816 17.3591 3.06533 16.935C2.6415 16.5184 2.3136 16.0145 2.10449 15.4583C1.89783 14.9275 1.75866 14.3225 1.71699 13.435C1.67783 12.5466 1.66699 12.2641 1.66699 9.99996C1.66699 7.73579 1.67533 7.45329 1.71699 6.56496C1.75866 5.67663 1.89783 5.07329 2.10449 4.54163C2.31302 3.98511 2.641 3.48106 3.06533 3.06496C3.48172 2.64099 3.98568 2.31307 4.54199 2.10413C5.07366 1.89746 5.67699 1.75829 6.56533 1.71663C7.45366 1.67746 7.73616 1.66663 10.0003 1.66663ZM10.0003 5.83329C8.89526 5.83329 7.83545 6.27228 7.05405 7.05368C6.27265 7.83508 5.83366 8.89489 5.83366 9.99996C5.83366 11.105 6.27265 12.1648 7.05405 12.9462C7.83545 13.7276 8.89526 14.1666 10.0003 14.1666C11.1054 14.1666 12.1652 13.7276 12.9466 12.9462C13.728 12.1648 14.167 11.105 14.167 9.99996C14.167 8.89489 13.728 7.83508 12.9466 7.05368C12.1652 6.27228 11.1054 5.83329 10.0003 5.83329ZM15.417 5.62496C15.417 5.34869 15.3072 5.08374 15.1119 4.88839C14.9165 4.69304 14.6516 4.58329 14.3753 4.58329C14.0991 4.58329 13.8341 4.69304 13.6388 4.88839C13.4434 5.08374 13.3337 5.34869 13.3337 5.62496C13.3337 5.90123 13.4434 6.16618 13.6388 6.36153C13.8341 6.55688 14.0991 6.66663 14.3753 6.66663C14.6516 6.66663 14.9165 6.55688 15.1119 6.36153C15.3072 6.16618 15.417 5.90123 15.417 5.62496ZM10.0003 7.49996C10.6634 7.49996 11.2993 7.76335 11.7681 8.23219C12.2369 8.70103 12.5003 9.33692 12.5003 9.99996C12.5003 10.663 12.2369 11.2989 11.7681 11.7677C11.2993 12.2366 10.6634 12.5 10.0003 12.5C9.33728 12.5 8.7014 12.2366 8.23256 11.7677C7.76372 11.2989 7.50033 10.663 7.50033 9.99996C7.50033 9.33692 7.76372 8.70103 8.23256 8.23219C8.7014 7.76335 9.33728 7.49996 10.0003 7.49996Z" fill="white"/>
</svg>
