<svg width="20" height="20" viewBox="0 0 20 20" fill="none" xmlns="http://www.w3.org/2000/svg">
<path d="M10.0003 18.3333C5.39783 18.3333 1.66699 14.6025 1.66699 9.99996C1.66699 5.39746 5.39783 1.66663 10.0003 1.66663C14.6028 1.66663 18.3337 5.39746 18.3337 9.99996C18.3337 14.6025 14.6028 18.3333 10.0003 18.3333ZM7.40866 10.975L7.41949 10.9691L8.14449 13.3608C8.23783 13.62 8.36616 13.6666 8.52199 13.645C8.67866 13.6241 8.76116 13.54 8.86366 13.4416L9.85366 12.485L11.9787 14.0583C12.367 14.2725 12.6462 14.1616 12.7428 13.6983L14.1237 7.17996C14.2762 6.57329 14.0095 6.32996 13.5387 6.52329L5.42783 9.65663C4.87449 9.87829 4.87783 10.1883 5.32783 10.3258L7.40866 10.9758V10.975Z" fill="white"/>
</svg>
