<svg width="18" height="14" viewBox="0 0 18 14" fill="none" xmlns="http://www.w3.org/2000/svg">
<path d="M17.4673 1.71327C16.8311 1.99468 16.1564 2.1795 15.4656 2.26161C16.1937 1.82613 16.7387 1.14078 16.9989 0.333272C16.3156 0.739939 15.5664 1.02494 14.7856 1.17911C14.2611 0.617921 13.5659 0.245741 12.8081 0.120426C12.0502 -0.00488923 11.2722 0.123681 10.595 0.48615C9.91777 0.848618 9.37927 1.42468 9.06321 2.12477C8.74715 2.82486 8.67124 3.60976 8.84728 4.35744C7.46154 4.28798 6.10589 3.92787 4.86835 3.30049C3.63081 2.67311 2.53905 1.79248 1.66395 0.715772C1.35419 1.24781 1.19141 1.85263 1.19228 2.46827C1.19228 3.6766 1.80728 4.74411 2.74228 5.36911C2.18895 5.35169 1.64781 5.20226 1.16395 4.93327V4.9766C1.16411 5.78136 1.44259 6.56129 1.95215 7.18415C2.46172 7.80702 3.17101 8.2345 3.95978 8.3941C3.44612 8.5333 2.90753 8.55382 2.38478 8.4541C2.60717 9.1468 3.04062 9.7526 3.62444 10.1867C4.20826 10.6208 4.91322 10.8614 5.64061 10.8749C4.91768 11.4427 4.08993 11.8624 3.20468 12.1101C2.31943 12.3577 1.39405 12.4285 0.481445 12.3183C2.07453 13.3428 3.92903 13.8867 5.82311 13.8849C12.2339 13.8849 15.7398 8.57411 15.7398 3.96827C15.7398 3.81827 15.7356 3.66661 15.7289 3.51827C16.4113 3.02508 17.0003 2.41412 17.4681 1.71411L17.4673 1.71327Z" fill="white"/>
</svg>
