<svg width="15" height="16" viewBox="0 0 15 16" fill="none" xmlns="http://www.w3.org/2000/svg">
<path d="M14.3828 0.617106C13.8094 0.683636 13.2355 0.740662 12.6612 0.788184C12.0875 0.837743 11.5139 0.879154 10.9402 0.919208C9.79291 0.995922 8.64559 1.05499 7.49828 1.09979L6.63813 1.13238L5.77731 1.15885C5.20365 1.17786 4.62999 1.18669 4.05633 1.19959C3.48268 1.21249 2.90902 1.21588 2.33536 1.22403L1.22539 1.22878L1.21995 2.33808C1.21181 2.91174 1.20841 3.48539 1.19551 4.05905C1.18262 4.63271 1.17379 5.20636 1.15478 5.78002C1.13577 6.35368 1.11812 6.92734 1.09572 7.50099C1.04888 8.64831 0.991169 9.79562 0.914455 10.9429C0.875759 11.5166 0.834353 12.0903 0.784795 12.6639C0.735236 13.2376 0.680246 13.8112 0.614394 14.3856C0.547863 13.8112 0.491062 13.2373 0.443993 12.6639C0.394435 12.0903 0.35302 11.5166 0.313644 10.9429C0.23693 9.79562 0.177864 8.64831 0.132379 7.50099C0.109976 6.92734 0.0889316 6.35368 0.0739961 5.78002C0.0590606 5.20636 0.0448051 4.63271 0.0325851 4.05905C0.0203652 3.48539 0.0162929 2.91174 0.00814628 2.33808L0 0.617106V0H0.617783L2.33875 0.00746674C2.91241 0.0156134 3.48608 0.0203666 4.05973 0.0319077C4.63339 0.0434487 5.20705 0.0536303 5.7807 0.0726391L6.64152 0.0991166L7.50167 0.131704C8.64899 0.177868 9.7963 0.235572 10.9436 0.312965C11.5173 0.35234 12.0909 0.393753 12.6646 0.443312C13.2383 0.49287 13.8092 0.549896 14.3828 0.617106Z" fill="#00A989"/>
<path d="M14.9988 15.0046H14.3817L12.6601 14.9971C12.0864 14.989 11.5128 14.9842 10.9391 14.9727C10.3655 14.9612 9.7918 14.951 9.21814 14.932L8.35799 14.9055L7.49716 14.8688C6.34985 14.8227 5.20254 14.765 4.05522 14.6876C3.48156 14.6482 2.90791 14.6068 2.33425 14.5572C1.76059 14.5077 1.18694 14.4527 0.613281 14.3861C1.18671 14.3187 1.76037 14.2614 2.33425 14.2144C2.90791 14.1648 3.48156 14.1234 4.05522 14.0834C5.20254 14.0066 6.34985 13.9476 7.49716 13.9028L8.35799 13.8702L9.21814 13.8437C9.7918 13.8247 10.3655 13.8159 10.9391 13.803C11.5128 13.7901 12.0864 13.7867 12.6601 13.7785L13.7701 13.7738L13.7755 12.6645C13.7836 12.0908 13.787 11.5172 13.7999 10.9435C13.8128 10.3699 13.8223 9.7962 13.8413 9.22254C13.8604 8.64888 13.8773 8.07522 13.8997 7.50156C13.9466 6.35425 14.0043 5.20694 14.081 4.05962C14.1204 3.48596 14.1618 2.91231 14.2113 2.33865C14.2609 1.76499 14.3152 1.19133 14.3817 0.617676C14.4478 1.19156 14.5046 1.76522 14.5521 2.33865C14.601 2.91231 14.6431 3.48596 14.6818 4.05962C14.7585 5.20694 14.8176 6.35425 14.8631 7.50156C14.8855 8.07522 14.9065 8.64888 14.9221 9.22254C14.9377 9.7962 14.9506 10.3699 14.9629 10.9435C14.9751 11.5172 14.9792 12.0908 14.9873 12.6645L14.9961 14.3861L14.9988 15.0046Z" fill="#00A989"/>
<path d="M11.7189 3.28036C11.5431 3.30208 11.3672 3.31838 11.1914 3.33739L10.6639 3.38491C10.3122 3.41614 9.96059 3.44126 9.60892 3.4657C8.90492 3.51254 8.20159 3.54784 7.49827 3.57635C6.79494 3.60487 6.09162 3.62388 5.3883 3.63745L4.33263 3.65239L3.65374 3.65578V4.33467C3.64899 4.68633 3.64696 5.03799 3.63881 5.38965C3.62523 6.09366 3.60622 6.79698 3.57771 7.50031C3.5492 8.20363 3.51389 8.90695 3.46705 9.61096C3.44261 9.96262 3.41817 10.3143 3.38627 10.6659L3.33942 11.1934C3.32041 11.3693 3.30412 11.5451 3.2824 11.7209C3.26067 11.5451 3.24506 11.3693 3.22605 11.1934L3.17852 10.6659C3.1473 10.3143 3.12218 9.96262 3.09842 9.61096C3.0509 8.90695 3.01627 8.20363 2.98708 7.50031C2.95789 6.79698 2.93956 6.09366 2.92598 5.38965C2.91851 5.03799 2.9158 4.68633 2.91105 4.33467L2.90222 3.28036V2.90222H3.28104L4.33603 2.90697L5.39169 2.92123C6.09502 2.93549 6.79834 2.95382 7.50166 2.98233C8.20499 3.01084 8.90831 3.04682 9.61231 3.09367C9.96398 3.11811 10.3156 3.14255 10.6673 3.17445L11.1948 3.22198C11.3672 3.24234 11.5431 3.25999 11.7189 3.28036Z" fill="#00A989"/>
<path d="M12.0978 12.0997H11.719L10.664 12.095L9.60899 12.0807C8.90498 12.0665 8.20165 12.0481 7.49833 12.0196C6.79501 11.9911 6.09168 11.9517 5.38836 11.9083C5.0367 11.8838 4.68435 11.8594 4.33269 11.8275L3.8052 11.78C3.62937 11.761 3.45354 11.7447 3.27771 11.7229C3.45354 11.7012 3.62937 11.6849 3.8052 11.6659L4.33269 11.6184C4.68435 11.5872 5.0367 11.562 5.38836 11.5376C6.09168 11.4908 6.79501 11.4555 7.49833 11.4269C8.20165 11.3984 8.90498 11.3794 9.60899 11.3659L10.664 11.3509H11.3429L11.3463 10.672C11.351 10.3204 11.3537 9.96871 11.3612 9.61704C11.3748 8.91304 11.3938 8.20971 11.4223 7.50639C11.4508 6.80307 11.4902 6.09974 11.5336 5.39574C11.5581 5.04408 11.5825 4.69242 11.6137 4.34075L11.6613 3.81326C11.6803 3.63743 11.6959 3.4616 11.7176 3.28577C11.7393 3.4616 11.7556 3.63743 11.7746 3.81326L11.8215 4.34075C11.8534 4.69242 11.8778 5.04408 11.9023 5.39574C11.9491 6.09974 11.9844 6.80307 12.0129 7.50639C12.0414 8.20971 12.0604 8.91304 12.074 9.61704C12.0822 9.96871 12.0842 10.3204 12.0896 10.672L12.0944 11.727L12.0978 12.0997Z" fill="#00A989"/>
</svg>
