<svg width="14" height="19" viewBox="0 0 14 19" fill="none" xmlns="http://www.w3.org/2000/svg">
<path d="M13.6666 18.3334H11.9999V16.6667C11.9999 16.0037 11.7365 15.3678 11.2677 14.8989C10.7988 14.4301 10.163 14.1667 9.49992 14.1667H4.49992C3.83688 14.1667 3.20099 14.4301 2.73215 14.8989C2.26331 15.3678 1.99992 16.0037 1.99992 16.6667V18.3334H0.333252V16.6667C0.333252 15.5616 0.772239 14.5018 1.55364 13.7204C2.33504 12.939 3.39485 12.5 4.49992 12.5H9.49992C10.605 12.5 11.6648 12.939 12.4462 13.7204C13.2276 14.5018 13.6666 15.5616 13.6666 16.6667V18.3334ZM6.99992 10.8334C6.34331 10.8334 5.69313 10.704 5.0865 10.4528C4.47987 10.2015 3.92868 9.8332 3.46438 9.36891C3.00009 8.90461 2.63179 8.35342 2.38052 7.74679C2.12925 7.14016 1.99992 6.48998 1.99992 5.83337C1.99992 5.17676 2.12925 4.52658 2.38052 3.91996C2.63179 3.31333 3.00009 2.76213 3.46438 2.29784C3.92868 1.83355 4.47987 1.46525 5.0865 1.21398C5.69313 0.962703 6.34331 0.833374 6.99992 0.833374C8.326 0.833374 9.59777 1.36016 10.5355 2.29784C11.4731 3.23552 11.9999 4.50729 11.9999 5.83337C11.9999 7.15946 11.4731 8.43123 10.5355 9.36891C9.59777 10.3066 8.326 10.8334 6.99992 10.8334ZM6.99992 9.16671C7.88397 9.16671 8.73182 8.81552 9.35694 8.1904C9.98206 7.56528 10.3333 6.71743 10.3333 5.83337C10.3333 4.94932 9.98206 4.10147 9.35694 3.47635C8.73182 2.85123 7.88397 2.50004 6.99992 2.50004C6.11586 2.50004 5.26802 2.85123 4.6429 3.47635C4.01777 4.10147 3.66658 4.94932 3.66658 5.83337C3.66658 6.71743 4.01777 7.56528 4.6429 8.1904C5.26802 8.81552 6.11586 9.16671 6.99992 9.16671Z" fill="#C1C1C1"/>
</svg>
