<svg width="16" height="16" viewBox="0 0 16 16" fill="none" xmlns="http://www.w3.org/2000/svg">
<path d="M2.494 0.938615L14.802 7.70795C14.8543 7.73672 14.8978 7.779 14.9282 7.83036C14.9586 7.88172 14.9746 7.94029 14.9746 7.99995C14.9746 8.05961 14.9586 8.11818 14.9282 8.16954C14.8978 8.2209 14.8543 8.26317 14.802 8.29195L2.494 15.0613C2.44325 15.0892 2.3861 15.1034 2.32818 15.1025C2.27027 15.1016 2.21358 15.0857 2.16372 15.0562C2.11385 15.0267 2.07253 14.9847 2.04382 14.9344C2.01511 14.8841 2.00001 14.8272 2 14.7693V1.23062C2.00001 1.17269 2.01511 1.11577 2.04382 1.06546C2.07253 1.01515 2.11385 0.973194 2.16372 0.94372C2.21358 0.914246 2.27027 0.898274 2.32818 0.897379C2.3861 0.896484 2.44325 0.910696 2.494 0.938615ZM3.33333 8.66662V13.0779L12.5667 7.99995L3.33333 2.92195V7.33328H6.66667V8.66662H3.33333Z" fill="white"/>
</svg>
