<svg width="34" height="30" viewBox="0 0 34 30" fill="none" xmlns="http://www.w3.org/2000/svg">
<path d="M12.1001 0.299988H21.9001L25.1668 3.56665H31.7001C32.1333 3.56665 32.5487 3.73874 32.855 4.04505C33.1613 4.35136 33.3334 4.7668 33.3334 5.19999V28.0667C33.3334 28.4998 33.1613 28.9153 32.855 29.2216C32.5487 29.5279 32.1333 29.7 31.7001 29.7H2.30008C1.86689 29.7 1.45145 29.5279 1.14514 29.2216C0.838831 28.9153 0.666748 28.4998 0.666748 28.0667V5.19999C0.666748 4.7668 0.838831 4.35136 1.14514 4.04505C1.45145 3.73874 1.86689 3.56665 2.30008 3.56665H8.83342L12.1001 0.299988ZM17.0001 26.4333C19.5992 26.4333 22.0919 25.4008 23.9297 23.563C25.7676 21.7251 26.8001 19.2324 26.8001 16.6333C26.8001 14.0342 25.7676 11.5415 23.9297 9.70368C22.0919 7.86582 19.5992 6.83332 17.0001 6.83332C14.401 6.83332 11.9083 7.86582 10.0704 9.70368C8.23258 11.5415 7.20008 14.0342 7.20008 16.6333C7.20008 19.2324 8.23258 21.7251 10.0704 23.563C11.9083 25.4008 14.401 26.4333 17.0001 26.4333ZM17.0001 23.1667C15.2673 23.1667 13.6056 22.4783 12.3803 21.2531C11.1551 20.0278 10.4667 18.3661 10.4667 16.6333C10.4667 14.9006 11.1551 13.2388 12.3803 12.0136C13.6056 10.7883 15.2673 10.1 17.0001 10.1C18.7328 10.1 20.3946 10.7883 21.6198 12.0136C22.8451 13.2388 23.5334 14.9006 23.5334 16.6333C23.5334 18.3661 22.8451 20.0278 21.6198 21.2531C20.3946 22.4783 18.7328 23.1667 17.0001 23.1667Z" fill="white"/>
</svg>
