<svg width="20" height="26" viewBox="0 0 20 26" fill="none" xmlns="http://www.w3.org/2000/svg">
<path d="M19.0457 13.6795L1.73395 25.2206C1.61096 25.3025 1.46809 25.3494 1.32053 25.3565C1.17298 25.3635 1.02627 25.3305 0.896042 25.2607C0.765811 25.191 0.65693 25.0873 0.580996 24.9605C0.505062 24.8338 0.46492 24.6889 0.464844 24.5412V1.45891C0.46492 1.31119 0.505062 1.16626 0.580996 1.03955C0.65693 0.912834 0.765811 0.80909 0.896042 0.739365C1.02627 0.66964 1.17298 0.636544 1.32053 0.643603C1.46809 0.650661 1.61096 0.69761 1.73395 0.779448L19.0457 12.3206C19.1575 12.3952 19.2492 12.4962 19.3126 12.6147C19.3761 12.7333 19.4093 12.8656 19.4093 13C19.4093 13.1345 19.3761 13.2668 19.3126 13.3854C19.2492 13.5039 19.1575 13.6049 19.0457 13.6795Z" fill="white"/>
</svg>
